<svg width="32" height="35" viewBox="0 0 32 35" fill="none" xmlns="http://www.w3.org/2000/svg">
<g filter="url(#filter0_d_23_24)">
<path d="M11.6204 3.87811C12.3554 3.90046 13.0671 4.0288 13.7566 4.2633H13.8254C13.8721 4.28546 13.9071 4.30996 13.9304 4.33213C14.1882 4.41496 14.4321 4.5083 14.6654 4.63663L15.1087 4.83496C15.2837 4.9283 15.4937 5.10213 15.6104 5.1733C15.7271 5.24213 15.8554 5.3133 15.9604 5.3938C17.2566 4.4033 18.8304 3.86663 20.4521 3.87811C21.1882 3.87811 21.9232 3.98213 22.6221 4.21663C26.9282 5.61663 28.4799 10.3416 27.1837 14.4716C26.4487 16.5821 25.2471 18.5083 23.6732 20.0821C21.4204 22.2638 18.9482 24.2005 16.2871 25.8688L15.9954 26.045L15.6921 25.8571C13.0216 24.2005 10.5354 22.2638 8.26155 20.0705C6.69822 18.4966 5.49539 16.5821 4.74872 14.4716C3.43039 10.3416 4.98205 5.61663 9.33489 4.19213C9.67322 4.07546 10.0221 3.9938 10.3721 3.9483H10.5121C10.8399 3.90046 11.1654 3.87811 11.4921 3.87811H11.6204ZM22.0154 7.56496C21.5371 7.40046 21.0121 7.6583 20.8371 8.1483C20.6737 8.6383 20.9304 9.17496 21.4204 9.3488C22.1682 9.6288 22.6687 10.365 22.6687 11.1805V11.2166C22.6466 11.4838 22.7271 11.7416 22.8904 11.94C23.0537 12.1383 23.2987 12.2538 23.5554 12.2783C24.0337 12.2655 24.4421 11.8816 24.4771 11.3905V11.2516C24.5121 9.61713 23.5216 8.13663 22.0154 7.56496Z" fill="#FF725E"/>
</g>
<defs>
<filter id="filter0_d_23_24" x="-2.03937" y="0.960632" width="36" height="36" filterUnits="userSpaceOnUse" color-interpolation-filters="sRGB">
<feFlood flood-opacity="0" result="BackgroundImageFix"/>
<feColorMatrix in="SourceAlpha" type="matrix" values="0 0 0 0 0 0 0 0 0 0 0 0 0 0 0 0 0 0 127 0" result="hardAlpha"/>
<feOffset dy="4"/>
<feGaussianBlur stdDeviation="2"/>
<feComposite in2="hardAlpha" operator="out"/>
<feColorMatrix type="matrix" values="0 0 0 0 0 0 0 0 0 0 0 0 0 0 0 0 0 0 0.25 0"/>
<feBlend mode="normal" in2="BackgroundImageFix" result="effect1_dropShadow_23_24"/>
<feBlend mode="normal" in="SourceGraphic" in2="effect1_dropShadow_23_24" result="shape"/>
</filter>
</defs>
</svg>
