<svg width="37" height="37" viewBox="0 0 37 37" fill="none" xmlns="http://www.w3.org/2000/svg">
<g filter="url(#filter0_d_23_30)">
<path d="M18.9887 0.960632C26.9407 0.960632 32.9607 7.48041 32.9607 14.9396C32.9607 23.5906 25.9047 28.9606 18.9607 28.9606C16.6647 28.9606 14.1167 28.3437 12.0727 27.1379C11.3587 26.7032 10.7567 26.3808 9.98669 26.6331L7.15869 27.4744C6.44469 27.6987 5.80069 27.1379 6.01069 26.3808L6.94869 23.2401C7.10269 22.8054 7.07469 22.3427 6.85069 21.9782C5.64669 19.7628 4.96069 17.3372 4.96069 14.9817C4.96069 7.6066 10.8547 0.960632 18.9887 0.960632ZM25.3867 13.201C24.3927 13.201 23.5947 14.0002 23.5947 14.9957C23.5947 15.9772 24.3927 16.7904 25.3867 16.7904C26.3807 16.7904 27.1787 15.9772 27.1787 14.9957C27.1787 14.0002 26.3807 13.201 25.3867 13.201ZM18.9327 13.201C17.9527 13.187 17.1407 14.0002 17.1407 14.9817C17.1407 15.9772 17.9387 16.7764 18.9327 16.7904C19.9267 16.7904 20.7247 15.9772 20.7247 14.9957C20.7247 14.0002 19.9267 13.201 18.9327 13.201ZM12.4787 13.201C11.4847 13.201 10.6867 14.0002 10.6867 14.9957C10.6867 15.9772 11.4987 16.7904 12.4787 16.7904C13.4727 16.7764 14.2707 15.9772 14.2707 14.9957C14.2707 14.0002 13.4727 13.201 12.4787 13.201Z" fill="#4DA1D3"/>
</g>
<defs>
<filter id="filter0_d_23_30" x="0.960693" y="0.960632" width="36" height="36" filterUnits="userSpaceOnUse" color-interpolation-filters="sRGB">
<feFlood flood-opacity="0" result="BackgroundImageFix"/>
<feColorMatrix in="SourceAlpha" type="matrix" values="0 0 0 0 0 0 0 0 0 0 0 0 0 0 0 0 0 0 127 0" result="hardAlpha"/>
<feOffset dy="4"/>
<feGaussianBlur stdDeviation="2"/>
<feComposite in2="hardAlpha" operator="out"/>
<feColorMatrix type="matrix" values="0 0 0 0 0 0 0 0 0 0 0 0 0 0 0 0 0 0 0.25 0"/>
<feBlend mode="normal" in2="BackgroundImageFix" result="effect1_dropShadow_23_30"/>
<feBlend mode="normal" in="SourceGraphic" in2="effect1_dropShadow_23_30" result="shape"/>
</filter>
</defs>
</svg>
