<svg width="176" height="44" viewBox="0 0 176 44" fill="none" xmlns="http://www.w3.org/2000/svg">
<g filter="url(#filter0_d_23_75)">
<path d="M30.0597 1.39813L33.0097 3.74157C34.2195 4.68754 35.0259 5.93451 35.3018 7.24598C35.6202 8.68859 35.2806 10.1054 34.3256 11.3309L16.7528 34.0558C15.9463 35.0878 14.7578 35.6683 13.4844 35.6898L6.48079 35.7758C6.09877 35.7758 5.78043 35.5178 5.69553 35.1523L4.1038 28.2509C3.8279 26.9825 4.1038 25.671 4.91028 24.6605L17.3683 8.53595C17.5805 8.27795 17.9625 8.2371 18.2172 8.42845L23.4593 12.5993C23.7989 12.8788 24.2658 13.0293 24.7539 12.9648C25.7939 12.8358 26.4942 11.8899 26.3881 10.8794C26.3244 10.3634 26.0698 9.93341 25.7302 9.61092C25.6241 9.52492 20.6366 5.52602 20.6366 5.52602C20.3183 5.26803 20.2546 4.79504 20.5093 4.4747L22.483 1.91411C24.3082 -0.429327 27.4917 -0.644321 30.0597 1.39813Z" fill="#FF725E"/>
<path d="M29.7485 1.78945L29.7487 1.78963L32.6987 4.13307L32.6987 4.13308L32.7017 4.13544C33.8305 5.0181 34.5638 6.16668 34.8125 7.34891L34.8125 7.34892L34.8136 7.35372C35.0979 8.64213 34.8003 9.90826 33.9312 11.0235L33.93 11.025L16.3588 33.7479C16.3585 33.7483 16.3582 33.7487 16.3579 33.7491C15.6451 34.6605 14.5995 35.1705 13.4773 35.1898C13.4768 35.1898 13.4764 35.1898 13.476 35.1898L6.48079 35.2758C6.48 35.2758 6.47921 35.2758 6.47843 35.2758C6.33236 35.2747 6.21521 35.1796 6.18258 35.0392C6.18258 35.0392 6.18257 35.0392 6.18257 35.0392L4.59237 28.1447C4.59216 28.1437 4.59194 28.1427 4.59172 28.1417C4.34691 27.0121 4.59469 25.8575 5.30107 24.9724L5.30112 24.9725L5.30594 24.9662L17.7574 8.85009C17.7766 8.82861 17.804 8.81404 17.8366 8.8101C17.8701 8.80607 17.8969 8.81456 17.9139 8.82606L23.145 12.9882C23.5872 13.3507 24.1897 13.5432 24.8174 13.4608C26.1406 13.2956 27.0184 12.0938 26.8854 10.8272L26.8855 10.8272L26.8843 10.8182C26.8043 10.1695 26.4842 9.63749 26.0745 9.24837L26.0603 9.23484L26.045 9.22247C25.9906 9.17838 24.7153 8.15563 23.4564 7.14615L21.7304 5.76211L21.1639 5.30793L21.0054 5.18086L20.9637 5.14741L20.953 5.13883L20.9514 5.13757C20.9512 5.13736 20.9509 5.13715 20.9507 5.13695C20.8347 5.04226 20.8259 4.87987 20.9007 4.78586L20.9007 4.78589L20.9053 4.77995L22.8775 2.22135C22.8778 2.221 22.8781 2.22065 22.8783 2.2203C24.504 0.13424 27.36 -0.110235 29.7485 1.78945Z" stroke="black"/>
</g>
<path d="M52.5639 8.92176C53.8301 8.92176 54.9557 9.15918 55.9405 9.63403C56.9254 10.1089 57.752 10.7772 58.4203 11.6389C59.1061 12.4831 59.6162 13.4679 59.9503 14.5935C60.302 15.7015 60.4779 16.8886 60.4779 18.1548C60.4779 19.8607 60.1701 21.4172 59.5546 22.8241C58.9391 24.2135 58.0421 25.3214 56.8638 26.148C55.7031 26.9746 54.2698 27.3879 52.5639 27.3879H46.259C45.8017 27.3879 45.4148 27.2384 45.0983 26.9394C44.7993 26.6229 44.6498 26.2359 44.6498 25.7787V10.531C44.6498 10.0737 44.7993 9.69558 45.0983 9.3966C45.4148 9.08004 45.8017 8.92176 46.259 8.92176H52.5639ZM52.3001 24.3542C53.408 24.3542 54.3137 24.0728 55.0172 23.51C55.7207 22.9296 56.2307 22.1734 56.5473 21.2413C56.8814 20.2916 57.0485 19.2628 57.0485 18.1548C57.0485 17.3282 56.9518 16.5456 56.7583 15.807C56.5824 15.0508 56.301 14.3913 55.9141 13.8285C55.5272 13.2481 55.0348 12.7909 54.4368 12.4567C53.8389 12.1226 53.1266 11.9555 52.3001 11.9555H47.6835L47.9473 11.7181V24.6443L47.789 24.3542H52.3001ZM66.2247 25.7787C66.2247 26.2359 66.0752 26.6229 65.7762 26.9394C65.4772 27.2384 65.0991 27.3879 64.6419 27.3879C64.1846 27.3879 63.8065 27.2384 63.5075 26.9394C63.2085 26.6229 63.059 26.2359 63.059 25.7787V14.8837C63.059 14.4264 63.2085 14.0483 63.5075 13.7493C63.8065 13.4328 64.1846 13.2745 64.6419 13.2745C65.0991 13.2745 65.4772 13.4328 65.7762 13.7493C66.0752 14.0483 66.2247 14.4264 66.2247 14.8837V25.7787ZM64.6155 11.5598C64.0175 11.5598 63.5954 11.4631 63.3492 11.2696C63.103 11.0761 62.9799 10.7332 62.9799 10.2408V9.73955C62.9799 9.22953 63.1118 8.88659 63.3756 8.71072C63.657 8.51727 64.0791 8.42054 64.6419 8.42054C65.2574 8.42054 65.6883 8.51727 65.9345 8.71072C66.1807 8.90418 66.3038 9.24712 66.3038 9.73955V10.2408C66.3038 10.7508 66.1719 11.1025 65.9081 11.296C65.6443 11.4718 65.2134 11.5598 64.6155 11.5598ZM81.0326 13.0107C81.4898 13.0107 81.868 13.1602 82.1669 13.4592C82.4659 13.7581 82.6154 14.145 82.6154 14.6199V25.7787C82.6154 26.2359 82.4659 26.6229 82.1669 26.9394C81.868 27.2384 81.4898 27.3879 81.0326 27.3879C80.5753 27.3879 80.1972 27.2384 79.8982 26.9394C79.5993 26.6229 79.4498 26.2359 79.4498 25.7787V24.4861L80.0301 24.7235C80.0301 24.9521 79.907 25.2335 79.6608 25.5676C79.4146 25.8842 79.0805 26.2008 78.6584 26.5173C78.2363 26.8339 77.7351 27.1065 77.1547 27.3351C76.5919 27.5462 75.9764 27.6517 75.3081 27.6517C74.0946 27.6517 72.9954 27.3439 72.0106 26.7284C71.0257 26.0953 70.2431 25.2335 69.6627 24.1431C69.1 23.0352 68.8186 21.7689 68.8186 20.3444C68.8186 18.9023 69.1 17.636 69.6627 16.5456C70.2431 15.4377 71.0169 14.5759 71.9842 13.9604C72.9515 13.3273 74.0243 13.0107 75.2026 13.0107C75.9588 13.0107 76.6535 13.125 77.2866 13.3536C77.9197 13.5823 78.4649 13.8724 78.9222 14.2242C79.397 14.5759 79.7575 14.9364 80.0038 15.3058C80.2676 15.6575 80.3995 15.9565 80.3995 16.2027L79.4498 16.5456V14.6199C79.4498 14.1626 79.5993 13.7845 79.8982 13.4855C80.1972 13.169 80.5753 13.0107 81.0326 13.0107ZM75.7038 24.7499C76.4776 24.7499 77.1547 24.5564 77.7351 24.1695C78.3154 23.7826 78.7639 23.255 79.0805 22.5867C79.4146 21.9184 79.5817 21.171 79.5817 20.3444C79.5817 19.5002 79.4146 18.744 79.0805 18.0757C78.7639 17.4074 78.3154 16.8798 77.7351 16.4929C77.1547 16.106 76.4776 15.9125 75.7038 15.9125C74.9476 15.9125 74.2793 16.106 73.6989 16.4929C73.1185 16.8798 72.6613 17.4074 72.3271 18.0757C72.0106 18.744 71.8523 19.5002 71.8523 20.3444C71.8523 21.171 72.0106 21.9184 72.3271 22.5867C72.6613 23.255 73.1185 23.7826 73.6989 24.1695C74.2793 24.5564 74.9476 24.7499 75.7038 24.7499ZM87.6258 27.3879C87.1685 27.3879 86.7904 27.2384 86.4914 26.9394C86.1925 26.6229 86.043 26.2359 86.043 25.7787V14.8837C86.043 14.4264 86.1925 14.0483 86.4914 13.7493C86.7904 13.4328 87.1685 13.2745 87.6258 13.2745C88.083 13.2745 88.4611 13.4328 88.7601 13.7493C89.0591 14.0483 89.2086 14.4264 89.2086 14.8837V17.3634L89.0239 15.5959C89.2174 15.1739 89.4636 14.8045 89.7626 14.488C90.0791 14.1538 90.4309 13.8812 90.8178 13.6702C91.2047 13.4416 91.618 13.2745 92.0576 13.169C92.4973 13.0634 92.937 13.0107 93.3767 13.0107C93.9043 13.0107 94.3439 13.1602 94.6957 13.4592C95.065 13.7581 95.2496 14.1099 95.2496 14.5144C95.2496 15.0947 95.1002 15.5168 94.8012 15.7806C94.5022 16.0268 94.1769 16.1499 93.8251 16.1499C93.491 16.1499 93.1832 16.0884 92.9018 15.9653C92.638 15.8422 92.3302 15.7806 91.9785 15.7806C91.6619 15.7806 91.3366 15.8597 91.0024 16.018C90.6859 16.1587 90.3869 16.3873 90.1055 16.7039C89.8417 17.0205 89.6219 17.4162 89.446 17.891C89.2877 18.3483 89.2086 18.8935 89.2086 19.5266V25.7787C89.2086 26.2359 89.0591 26.6229 88.7601 26.9394C88.4611 27.2384 88.083 27.3879 87.6258 27.3879ZM107.954 13.2745C108.411 13.2745 108.79 13.4328 109.089 13.7493C109.387 14.0483 109.537 14.4264 109.537 14.8837V26.0953C109.537 27.7132 109.229 28.9971 108.614 29.9468C108.016 30.914 107.207 31.6087 106.187 32.0308C105.167 32.4529 104.024 32.6639 102.757 32.6639C102.194 32.6639 101.597 32.6199 100.963 32.532C100.33 32.4441 99.8115 32.3122 99.407 32.1363C98.8794 31.9077 98.5101 31.6175 98.299 31.2658C98.1056 30.9316 98.0704 30.5711 98.1935 30.1842C98.3518 29.6742 98.6068 29.3224 98.9585 29.129C99.3103 28.9531 99.6796 28.9355 100.066 29.0762C100.348 29.1641 100.717 29.296 101.174 29.4719C101.632 29.6654 102.159 29.7621 102.757 29.7621C103.566 29.7621 104.235 29.6478 104.762 29.4192C105.307 29.2081 105.712 28.8388 105.976 28.3112C106.257 27.8012 106.398 27.0977 106.398 26.2008V24.4333L106.952 25.0664C106.653 25.6468 106.275 26.1304 105.817 26.5173C105.378 26.8867 104.85 27.168 104.235 27.3615C103.619 27.555 102.916 27.6517 102.124 27.6517C101.192 27.6517 100.374 27.4406 99.6708 27.0186C98.9849 26.5789 98.4485 25.9809 98.0616 25.2247C97.6747 24.4509 97.4812 23.5715 97.4812 22.5867V14.8837C97.4812 14.4264 97.6307 14.0483 97.9297 13.7493C98.2287 13.4328 98.6068 13.2745 99.064 13.2745C99.5213 13.2745 99.8994 13.4328 100.198 13.7493C100.497 14.0483 100.647 14.4264 100.647 14.8837V21.637C100.647 22.7801 100.893 23.5891 101.386 24.064C101.896 24.5212 102.599 24.7499 103.496 24.7499C104.111 24.7499 104.63 24.6355 105.052 24.4069C105.474 24.1607 105.8 23.809 106.028 23.3517C106.257 22.8769 106.371 22.3053 106.371 21.637V14.8837C106.371 14.4264 106.521 14.0483 106.82 13.7493C107.119 13.4328 107.497 13.2745 107.954 13.2745Z" fill="#FF725E"/>
<path d="M114.89 27.3879C114.397 27.3879 113.993 27.2384 113.676 26.9394C113.377 26.6229 113.228 26.2359 113.228 25.7787V10.531C113.228 10.0737 113.377 9.69558 113.676 9.3966C113.993 9.08004 114.38 8.92176 114.837 8.92176H123.411C123.868 8.92176 124.246 9.07125 124.545 9.37022C124.862 9.65161 125.02 10.0209 125.02 10.4782C125.02 10.8651 124.862 11.208 124.545 11.507C124.246 11.806 123.868 11.9555 123.411 11.9555H116.288L116.525 11.6389V16.9413L116.341 16.5984H122.224C122.681 16.5984 123.059 16.7479 123.358 17.0469C123.674 17.3282 123.833 17.6976 123.833 18.1548C123.833 18.5417 123.674 18.8847 123.358 19.1836C123.059 19.4826 122.681 19.6321 122.224 19.6321H116.288L116.525 19.3947V25.7787C116.525 26.2359 116.358 26.6229 116.024 26.9394C115.708 27.2384 115.33 27.3879 114.89 27.3879ZM141.082 20.3444C141.082 21.7865 140.757 23.0615 140.106 24.1695C139.473 25.2599 138.611 26.1128 137.521 26.7284C136.448 27.3439 135.243 27.6517 133.907 27.6517C132.57 27.6517 131.357 27.3439 130.266 26.7284C129.193 26.1128 128.332 25.2599 127.681 24.1695C127.048 23.0615 126.731 21.7865 126.731 20.3444C126.731 18.9023 127.048 17.636 127.681 16.5456C128.332 15.4377 129.193 14.5759 130.266 13.9604C131.357 13.3273 132.57 13.0107 133.907 13.0107C135.243 13.0107 136.448 13.3273 137.521 13.9604C138.611 14.5759 139.473 15.4377 140.106 16.5456C140.757 17.636 141.082 18.9023 141.082 20.3444ZM137.916 20.3444C137.916 19.4474 137.732 18.6736 137.362 18.0229C137.011 17.3546 136.527 16.8358 135.912 16.4665C135.314 16.0972 134.645 15.9125 133.907 15.9125C133.168 15.9125 132.491 16.0972 131.875 16.4665C131.277 16.8358 130.794 17.3546 130.425 18.0229C130.073 18.6736 129.897 19.4474 129.897 20.3444C129.897 21.2237 130.073 21.9975 130.425 22.6658C130.794 23.3165 131.277 23.8266 131.875 24.1959C132.491 24.5652 133.168 24.7499 133.907 24.7499C134.645 24.7499 135.314 24.5652 135.912 24.1959C136.527 23.8266 137.011 23.3165 137.362 22.6658C137.732 21.9975 137.916 21.2237 137.916 20.3444ZM157.544 20.3444C157.544 21.7865 157.219 23.0615 156.568 24.1695C155.935 25.2599 155.073 26.1128 153.983 26.7284C152.91 27.3439 151.705 27.6517 150.369 27.6517C149.032 27.6517 147.818 27.3439 146.728 26.7284C145.655 26.1128 144.794 25.2599 144.143 24.1695C143.51 23.0615 143.193 21.7865 143.193 20.3444C143.193 18.9023 143.51 17.636 144.143 16.5456C144.794 15.4377 145.655 14.5759 146.728 13.9604C147.818 13.3273 149.032 13.0107 150.369 13.0107C151.705 13.0107 152.91 13.3273 153.983 13.9604C155.073 14.5759 155.935 15.4377 156.568 16.5456C157.219 17.636 157.544 18.9023 157.544 20.3444ZM154.378 20.3444C154.378 19.4474 154.194 18.6736 153.824 18.0229C153.473 17.3546 152.989 16.8358 152.373 16.4665C151.775 16.0972 151.107 15.9125 150.369 15.9125C149.63 15.9125 148.953 16.0972 148.337 16.4665C147.739 16.8358 147.256 17.3546 146.886 18.0229C146.535 18.6736 146.359 19.4474 146.359 20.3444C146.359 21.2237 146.535 21.9975 146.886 22.6658C147.256 23.3165 147.739 23.8266 148.337 24.1959C148.953 24.5652 149.63 24.7499 150.369 24.7499C151.107 24.7499 151.775 24.5652 152.373 24.1959C152.989 23.8266 153.473 23.3165 153.824 22.6658C154.194 21.9975 154.378 21.2237 154.378 20.3444ZM171.869 7.86656C172.326 7.86656 172.704 8.01604 173.003 8.31502C173.302 8.61399 173.452 9.0009 173.452 9.47575V25.7787C173.452 26.2359 173.302 26.6229 173.003 26.9394C172.704 27.2384 172.326 27.3879 171.869 27.3879C171.412 27.3879 171.034 27.2384 170.735 26.9394C170.436 26.6229 170.286 26.2359 170.286 25.7787V24.4861L170.867 24.7235C170.867 24.9521 170.743 25.2335 170.497 25.5676C170.251 25.8842 169.917 26.2008 169.495 26.5173C169.073 26.8339 168.571 27.1065 167.991 27.3351C167.428 27.5462 166.813 27.6517 166.144 27.6517C164.931 27.6517 163.832 27.3439 162.847 26.7284C161.862 26.0953 161.079 25.2335 160.499 24.1431C159.936 23.0352 159.655 21.7689 159.655 20.3444C159.655 18.9023 159.936 17.636 160.499 16.5456C161.079 15.4377 161.853 14.5759 162.821 13.9604C163.788 13.3273 164.861 13.0107 166.039 13.0107C166.795 13.0107 167.49 13.125 168.123 13.3536C168.756 13.5823 169.301 13.8724 169.759 14.2242C170.233 14.5759 170.594 14.9364 170.84 15.3058C171.104 15.6575 171.236 15.9565 171.236 16.2027L170.286 16.5456V9.47575C170.286 9.01849 170.436 8.64037 170.735 8.3414C171.034 8.02484 171.412 7.86656 171.869 7.86656ZM166.54 24.7499C167.314 24.7499 167.991 24.5564 168.571 24.1695C169.152 23.7826 169.6 23.255 169.917 22.5867C170.251 21.9184 170.418 21.171 170.418 20.3444C170.418 19.5002 170.251 18.744 169.917 18.0757C169.6 17.4074 169.152 16.8798 168.571 16.4929C167.991 16.106 167.314 15.9125 166.54 15.9125C165.784 15.9125 165.116 16.106 164.535 16.4929C163.955 16.8798 163.498 17.4074 163.164 18.0757C162.847 18.744 162.689 19.5002 162.689 20.3444C162.689 21.171 162.847 21.9184 163.164 22.5867C163.498 23.255 163.955 23.7826 164.535 24.1695C165.116 24.5564 165.784 24.7499 166.54 24.7499Z" fill="#20263C"/>
<path d="M33.6699 33.974C33.6699 32.8453 32.8686 31.9272 31.8835 31.9272H21.7864C20.8012 31.9272 20 32.8453 20 33.974C20 35.1049 20.8012 36.0207 21.7864 36.0207H31.8835C32.8686 36.0207 33.6699 35.1049 33.6699 33.974Z" fill="#20263C"/>
<defs>
<filter id="filter0_d_23_75" x="0" y="0" width="39.418" height="43.7758" filterUnits="userSpaceOnUse" color-interpolation-filters="sRGB">
<feFlood flood-opacity="0" result="BackgroundImageFix"/>
<feColorMatrix in="SourceAlpha" type="matrix" values="0 0 0 0 0 0 0 0 0 0 0 0 0 0 0 0 0 0 127 0" result="hardAlpha"/>
<feOffset dy="4"/>
<feGaussianBlur stdDeviation="2"/>
<feComposite in2="hardAlpha" operator="out"/>
<feColorMatrix type="matrix" values="0 0 0 0 0 0 0 0 0 0 0 0 0 0 0 0 0 0 0.25 0"/>
<feBlend mode="normal" in2="BackgroundImageFix" result="effect1_dropShadow_23_75"/>
<feBlend mode="normal" in="SourceGraphic" in2="effect1_dropShadow_23_75" result="shape"/>
</filter>
</defs>
</svg>
